<?xml version="1.0" encoding="UTF-8" standalone="no"?><svg xmlns="http://www.w3.org/2000/svg" xmlns:xlink="http://www.w3.org/1999/xlink" contentStyleType="text/css" height="271px" preserveAspectRatio="none" style="width:484px;height:271px;background:#FFFFFF;" version="1.1" viewBox="0 0 484 271" width="484px" zoomAndPan="magnify"><defs/><g><!--cluster ullile.sae201.exception--><g id="cluster_ullile.sae201.exception"><path d="M8.5,6 L191.5,6 A3.75,3.75 0 0 1 194,8.5 L201,28.2969 L474.5,28.2969 A2.5,2.5 0 0 1 477,30.7969 L477,243.5 A2.5,2.5 0 0 1 474.5,246 L8.5,246 A2.5,2.5 0 0 1 6,243.5 L6,8.5 A2.5,2.5 0 0 1 8.5,6 " fill="none" style="stroke:#000000;stroke-width:1.5;"/><line style="stroke:#000000;stroke-width:1.5;" x1="6" x2="201" y1="28.2969" y2="28.2969"/><text fill="#000000" font-family="sans-serif" font-size="14" font-weight="bold" lengthAdjust="spacing" textLength="182" x="10" y="20.9951">ullile.sae201.exception</text></g><!--class ullile.sae201.exception.RequirementNotFound--><a href="RequirementNotFound.html" target="_top" title="RequirementNotFound.html" xlink:actuate="onRequest" xlink:href="RequirementNotFound.html" xlink:show="new" xlink:title="RequirementNotFound.html" xlink:type="simple"><g id="elem_ullile.sae201.exception.RequirementNotFound"><rect codeLine="3" fill="#F1F1F1" height="80.5938" id="ullile.sae201.exception.RequirementNotFound" rx="2.5" ry="2.5" style="stroke:#181818;stroke-width:0.5;" width="234" x="22" y="41"/><ellipse cx="56.8" cy="57" fill="#ADD1B2" rx="11" ry="11" style="stroke:#181818;stroke-width:1.0;"/><path d="M59.7688,62.6406 Q59.1906,62.9375 58.55,63.0781 Q57.9094,63.2344 57.2063,63.2344 Q54.7063,63.2344 53.3781,61.5938 Q52.0656,59.9375 52.0656,56.8125 Q52.0656,53.6875 53.3781,52.0313 Q54.7063,50.375 57.2063,50.375 Q57.9094,50.375 58.55,50.5313 Q59.2063,50.6875 59.7688,50.9844 L59.7688,53.7031 Q59.1438,53.125 58.55,52.8594 Q57.9563,52.5781 57.3313,52.5781 Q55.9875,52.5781 55.3,53.6563 Q54.6125,54.7188 54.6125,56.8125 Q54.6125,58.9063 55.3,59.9844 Q55.9875,61.0469 57.3313,61.0469 Q57.9563,61.0469 58.55,60.7813 Q59.1438,60.5 59.7688,59.9219 L59.7688,62.6406 Z " fill="#000000"/><text fill="#000000" font-family="sans-serif" font-size="14" lengthAdjust="spacing" textLength="158" x="75.2" y="61.8467">RequirementNotFound</text><line style="stroke:#181818;stroke-width:0.5;" x1="23" x2="255" y1="73" y2="73"/><line style="stroke:#181818;stroke-width:0.5;" x1="23" x2="255" y1="81" y2="81"/><ellipse cx="33" cy="94.6484" fill="#84BE84" rx="3" ry="3" style="stroke:#038048;stroke-width:1.0;"/><text fill="#000000" font-family="sans-serif" font-size="14" lengthAdjust="spacing" textLength="208" x="42" y="97.9951">RequirementNotFound(String)</text><ellipse cx="33" cy="110.9453" fill="#84BE84" rx="3" ry="3" style="stroke:#038048;stroke-width:1.0;"/><text fill="#000000" font-family="sans-serif" font-size="14" lengthAdjust="spacing" textLength="207" x="42" y="114.292">getHobbiesNotFound(): String</text></g></a><!--class ullile.sae201.exception.InvalidCSVException--><a href="InvalidCSVException.html" target="_top" title="InvalidCSVException.html" xlink:actuate="onRequest" xlink:href="InvalidCSVException.html" xlink:show="new" xlink:title="InvalidCSVException.html" xlink:type="simple"><g id="elem_ullile.sae201.exception.InvalidCSVException"><rect codeLine="8" fill="#F1F1F1" height="48" id="ullile.sae201.exception.InvalidCSVException" rx="2.5" ry="2.5" style="stroke:#181818;stroke-width:0.5;" width="170" x="291" y="57.5"/><ellipse cx="306" cy="73.5" fill="#ADD1B2" rx="11" ry="11" style="stroke:#181818;stroke-width:1.0;"/><path d="M308.9688,79.1406 Q308.3906,79.4375 307.75,79.5781 Q307.1094,79.7344 306.4063,79.7344 Q303.9063,79.7344 302.5781,78.0938 Q301.2656,76.4375 301.2656,73.3125 Q301.2656,70.1875 302.5781,68.5313 Q303.9063,66.875 306.4063,66.875 Q307.1094,66.875 307.75,67.0313 Q308.4063,67.1875 308.9688,67.4844 L308.9688,70.2031 Q308.3438,69.625 307.75,69.3594 Q307.1563,69.0781 306.5313,69.0781 Q305.1875,69.0781 304.5,70.1563 Q303.8125,71.2188 303.8125,73.3125 Q303.8125,75.4063 304.5,76.4844 Q305.1875,77.5469 306.5313,77.5469 Q307.1563,77.5469 307.75,77.2813 Q308.3438,77 308.9688,76.4219 L308.9688,79.1406 Z " fill="#000000"/><text fill="#000000" font-family="sans-serif" font-size="14" lengthAdjust="spacing" textLength="138" x="320" y="78.3467">InvalidCSVException</text><line style="stroke:#181818;stroke-width:0.5;" x1="292" x2="460" y1="89.5" y2="89.5"/><line style="stroke:#181818;stroke-width:0.5;" x1="292" x2="460" y1="97.5" y2="97.5"/></g></a><!--class ullile.sae201.exception.InvalidCriterion--><a href="InvalidCriterion.html" target="_top" title="InvalidCriterion.html" xlink:actuate="onRequest" xlink:href="InvalidCriterion.html" xlink:show="new" xlink:title="InvalidCriterion.html" xlink:type="simple"><g id="elem_ullile.sae201.exception.InvalidCriterion"><rect codeLine="10" fill="#F1F1F1" height="48" id="ullile.sae201.exception.InvalidCriterion" rx="2.5" ry="2.5" style="stroke:#181818;stroke-width:0.5;" width="132" x="73" y="182"/><ellipse cx="88" cy="198" fill="#ADD1B2" rx="11" ry="11" style="stroke:#181818;stroke-width:1.0;"/><path d="M90.9688,203.6406 Q90.3906,203.9375 89.75,204.0781 Q89.1094,204.2344 88.4063,204.2344 Q85.9063,204.2344 84.5781,202.5938 Q83.2656,200.9375 83.2656,197.8125 Q83.2656,194.6875 84.5781,193.0313 Q85.9063,191.375 88.4063,191.375 Q89.1094,191.375 89.75,191.5313 Q90.4063,191.6875 90.9688,191.9844 L90.9688,194.7031 Q90.3438,194.125 89.75,193.8594 Q89.1563,193.5781 88.5313,193.5781 Q87.1875,193.5781 86.5,194.6563 Q85.8125,195.7188 85.8125,197.8125 Q85.8125,199.9063 86.5,200.9844 Q87.1875,202.0469 88.5313,202.0469 Q89.1563,202.0469 89.75,201.7813 Q90.3438,201.5 90.9688,200.9219 L90.9688,203.6406 Z " fill="#000000"/><text fill="#000000" font-family="sans-serif" font-size="14" lengthAdjust="spacing" textLength="100" x="102" y="202.8467">InvalidCriterion</text><line style="stroke:#181818;stroke-width:0.5;" x1="74" x2="204" y1="214" y2="214"/><line style="stroke:#181818;stroke-width:0.5;" x1="74" x2="204" y1="222" y2="222"/></g></a><text fill="#888888" font-family="sans-serif" font-size="10" lengthAdjust="spacing" textLength="186" x="142" y="261.2822">UMLDoclet 2.1.0, PlantUML 1.2022.14</text><!--SRC=[TO_D2i8m48JlVOgz21ObQ8zU_K51HInwAJsawLe3QQB9jWZYkrkn5YjrBWl3DyiC083cEReB5mY5Kb8XSno3qPZXJU25fD5mzpoe9HHt3lPuBQJ573Lj3IrCeLE8eWwNdIbNSLnzW2yDEiX-I5Rgp6-36TBI98b4rt3-1DveGpv-wwrqoPLCf-5ntco8eWwthlSlRoMXROS_LYjP5n3L7BHmCkPr3flrp0Y5104Riz4GTefhgbpebMXTzQFlFm40]--></g></svg>