<?xml version="1.0" encoding="UTF-8" standalone="no"?><svg xmlns="http://www.w3.org/2000/svg" xmlns:xlink="http://www.w3.org/1999/xlink" contentStyleType="text/css" height="1256px" preserveAspectRatio="none" style="width:1267px;height:1256px;background:#FFFFFF;" version="1.1" viewBox="0 0 1267 1256" width="1267px" zoomAndPan="magnify"><defs/><g><!--cluster ullile.sae201--><g id="cluster_ullile.sae201"><path d="M8.5,138 L108.5,138 A3.75,3.75 0 0 1 111,140.5 L118,160.2969 L1203.5,160.2969 A2.5,2.5 0 0 1 1206,162.7969 L1206,1228.5 A2.5,2.5 0 0 1 1203.5,1231 L8.5,1231 A2.5,2.5 0 0 1 6,1228.5 L6,140.5 A2.5,2.5 0 0 1 8.5,138 " fill="none" style="stroke:#000000;stroke-width:1.5;"/><line style="stroke:#000000;stroke-width:1.5;" x1="6" x2="118" y1="160.2969" y2="160.2969"/><text fill="#000000" font-family="sans-serif" font-size="14" font-weight="bold" lengthAdjust="spacing" textLength="99" x="10" y="152.9951">ullile.sae201</text></g><!--cluster java.io--><g id="cluster_java.io"><path d="M1122.5,6 L1173.5,6 A3.75,3.75 0 0 1 1176,8.5 L1183,28.2969 L1257.5,28.2969 A2.5,2.5 0 0 1 1260,30.7969 L1260,102.5 A2.5,2.5 0 0 1 1257.5,105 L1122.5,105 A2.5,2.5 0 0 1 1120,102.5 L1120,8.5 A2.5,2.5 0 0 1 1122.5,6 " fill="none" style="stroke:#000000;stroke-width:1.5;"/><line style="stroke:#000000;stroke-width:1.5;" x1="1120" x2="1183" y1="28.2969" y2="28.2969"/><text fill="#000000" font-family="sans-serif" font-size="14" font-weight="bold" lengthAdjust="spacing" textLength="50" x="1124" y="20.9951">java.io</text></g><!--class ullile.sae201.Country--><a href="Country.html" target="_top" title="Country.html" xlink:actuate="onRequest" xlink:href="Country.html" xlink:show="new" xlink:title="Country.html" xlink:type="simple"><g id="elem_ullile.sae201.Country"><rect codeLine="3" fill="#F1F1F1" height="129.4844" id="ullile.sae201.Country" rx="2.5" ry="2.5" style="stroke:#181818;stroke-width:0.5;" width="163" x="564.5" y="1086"/><ellipse cx="614.75" cy="1102" fill="#EB937F" rx="11" ry="11" style="stroke:#181818;stroke-width:1.0;"/><path d="M618.8594,1108 L611.1406,1108 L611.1406,1095.6094 L618.8594,1095.6094 L618.8594,1097.7656 L613.5938,1097.7656 L613.5938,1100.4375 L618.3594,1100.4375 L618.3594,1102.5938 L613.5938,1102.5938 L613.5938,1105.8438 L618.8594,1105.8438 L618.8594,1108 Z " fill="#000000"/><text fill="#000000" font-family="sans-serif" font-size="14" lengthAdjust="spacing" textLength="54" x="635.25" y="1106.8467">Country</text><line style="stroke:#181818;stroke-width:0.5;" x1="565.5" x2="726.5" y1="1118" y2="1118"/><ellipse cx="575.5" cy="1131.6484" fill="none" rx="3" ry="3" style="stroke:#038048;stroke-width:1.0;"/><text fill="#000000" font-family="sans-serif" font-size="14" lengthAdjust="spacing" text-decoration="underline" textLength="56" x="584.5" y="1134.9951">FRANCE</text><ellipse cx="575.5" cy="1147.9453" fill="none" rx="3" ry="3" style="stroke:#038048;stroke-width:1.0;"/><text fill="#000000" font-family="sans-serif" font-size="14" lengthAdjust="spacing" text-decoration="underline" textLength="40" x="584.5" y="1151.292">SPAIN</text><ellipse cx="575.5" cy="1164.2422" fill="none" rx="3" ry="3" style="stroke:#038048;stroke-width:1.0;"/><text fill="#000000" font-family="sans-serif" font-size="14" lengthAdjust="spacing" text-decoration="underline" textLength="70" x="584.5" y="1167.5889">GERMANY</text><ellipse cx="575.5" cy="1180.5391" fill="none" rx="3" ry="3" style="stroke:#038048;stroke-width:1.0;"/><text fill="#000000" font-family="sans-serif" font-size="14" lengthAdjust="spacing" text-decoration="underline" textLength="37" x="584.5" y="1183.8857">ITALY</text><line style="stroke:#181818;stroke-width:0.5;" x1="565.5" x2="726.5" y1="1191.1875" y2="1191.1875"/><ellipse cx="575.5" cy="1204.8359" fill="#84BE84" rx="3" ry="3" style="stroke:#038048;stroke-width:1.0;"/><text fill="#000000" font-family="sans-serif" font-size="14" lengthAdjust="spacing" textLength="137" x="584.5" y="1208.1826">isGrouch(): boolean</text></g></a><!--class ullile.sae201.Teenager--><a href="Teenager.html" target="_top" title="Teenager.html" xlink:actuate="onRequest" xlink:href="Teenager.html" xlink:show="new" xlink:title="Teenager.html" xlink:type="simple"><g id="elem_ullile.sae201.Teenager"><rect codeLine="11" fill="#F1F1F1" height="488.0156" id="ullile.sae201.Teenager" rx="2.5" ry="2.5" style="stroke:#181818;stroke-width:0.5;" width="446" x="671" y="521"/><ellipse cx="856.25" cy="537" fill="#ADD1B2" rx="11" ry="11" style="stroke:#181818;stroke-width:1.0;"/><path d="M859.2188,542.6406 Q858.6406,542.9375 858,543.0781 Q857.3594,543.2344 856.6563,543.2344 Q854.1563,543.2344 852.8281,541.5938 Q851.5156,539.9375 851.5156,536.8125 Q851.5156,533.6875 852.8281,532.0313 Q854.1563,530.375 856.6563,530.375 Q857.3594,530.375 858,530.5313 Q858.6563,530.6875 859.2188,530.9844 L859.2188,533.7031 Q858.5938,533.125 858,532.8594 Q857.4063,532.5781 856.7813,532.5781 Q855.4375,532.5781 854.75,533.6563 Q854.0625,534.7188 854.0625,536.8125 Q854.0625,538.9063 854.75,539.9844 Q855.4375,541.0469 856.7813,541.0469 Q857.4063,541.0469 858,540.7813 Q858.5938,540.5 859.2188,539.9219 L859.2188,542.6406 Z " fill="#000000"/><text fill="#000000" font-family="sans-serif" font-size="14" lengthAdjust="spacing" textLength="67" x="876.75" y="541.8467">Teenager</text><line style="stroke:#181818;stroke-width:0.5;" x1="672" x2="1116" y1="553" y2="553"/><line style="stroke:#181818;stroke-width:0.5;" x1="672" x2="1116" y1="561" y2="561"/><ellipse cx="682" cy="574.6484" fill="#84BE84" rx="3" ry="3" style="stroke:#038048;stroke-width:1.0;"/><text fill="#000000" font-family="sans-serif" font-size="14" lengthAdjust="spacing" textLength="303" x="691" y="577.9951">Teenager(String, String, LocalDate, Country)</text><ellipse cx="682" cy="590.9453" fill="#84BE84" rx="3" ry="3" style="stroke:#038048;stroke-width:1.0;"/><text fill="#000000" font-family="sans-serif" font-size="14" lengthAdjust="spacing" textLength="289" x="691" y="594.292">Teenager(String, String, LocalDate, String)</text><ellipse cx="682" cy="607.2422" fill="#84BE84" rx="3" ry="3" style="stroke:#038048;stroke-width:1.0;"/><text fill="#000000" font-family="sans-serif" font-size="14" lengthAdjust="spacing" textLength="220" x="691" y="610.5889">purgeInvalidRequirement(): void</text><ellipse cx="682" cy="623.5391" fill="#84BE84" rx="3" ry="3" style="stroke:#038048;stroke-width:1.0;"/><text fill="#000000" font-family="sans-serif" font-size="14" lengthAdjust="spacing" textLength="309" x="691" y="626.8857">addRequirement(CriterionName, String): void</text><ellipse cx="682" cy="639.8359" fill="#84BE84" rx="3" ry="3" style="stroke:#038048;stroke-width:1.0;"/><text fill="#000000" font-family="sans-serif" font-size="14" lengthAdjust="spacing" textLength="221" x="691" y="643.1826">addRequirement(Criterion): void</text><ellipse cx="682" cy="656.1328" fill="#84BE84" rx="3" ry="3" style="stroke:#038048;stroke-width:1.0;"/><text fill="#000000" font-family="sans-serif" font-size="14" lengthAdjust="spacing" textLength="334" x="691" y="659.4795">replaceRequirement(CriterionName, String): void</text><ellipse cx="682" cy="672.4297" fill="#84BE84" rx="3" ry="3" style="stroke:#038048;stroke-width:1.0;"/><text fill="#000000" font-family="sans-serif" font-size="14" lengthAdjust="spacing" textLength="290" x="691" y="675.7764">compatibleWithGuest(Teenager): boolean</text><ellipse cx="682" cy="688.7266" fill="#84BE84" rx="3" ry="3" style="stroke:#038048;stroke-width:1.0;"/><text fill="#000000" font-family="sans-serif" font-size="14" lengthAdjust="spacing" textLength="359" x="691" y="692.0732">compatibleWithGuestGrapheV1(Teenager): boolean</text><ellipse cx="682" cy="705.0234" fill="#84BE84" rx="3" ry="3" style="stroke:#038048;stroke-width:1.0;"/><text fill="#000000" font-family="sans-serif" font-size="14" lengthAdjust="spacing" textLength="359" x="691" y="708.3701">compatibleWithGuestGrapheV2(Teenager): boolean</text><ellipse cx="682" cy="721.3203" fill="#84BE84" rx="3" ry="3" style="stroke:#038048;stroke-width:1.0;"/><text fill="#000000" font-family="sans-serif" font-size="14" lengthAdjust="spacing" text-decoration="underline" textLength="420" x="691" y="724.667">booleanConverter(Teenager, CriterionName, String): boolean</text><ellipse cx="682" cy="737.6172" fill="#84BE84" rx="3" ry="3" style="stroke:#038048;stroke-width:1.0;"/><text fill="#000000" font-family="sans-serif" font-size="14" lengthAdjust="spacing" textLength="122" x="691" y="740.9639">getName(): String</text><ellipse cx="682" cy="753.9141" fill="#84BE84" rx="3" ry="3" style="stroke:#038048;stroke-width:1.0;"/><text fill="#000000" font-family="sans-serif" font-size="14" lengthAdjust="spacing" textLength="152" x="691" y="757.2607">getForename(): String</text><ellipse cx="682" cy="770.2109" fill="#84BE84" rx="3" ry="3" style="stroke:#038048;stroke-width:1.0;"/><text fill="#000000" font-family="sans-serif" font-size="14" lengthAdjust="spacing" textLength="180" x="691" y="773.5576">getDateNaiss(): LocalDate</text><ellipse cx="682" cy="786.5078" fill="#84BE84" rx="3" ry="3" style="stroke:#038048;stroke-width:1.0;"/><text fill="#000000" font-family="sans-serif" font-size="14" lengthAdjust="spacing" textLength="392" x="691" y="789.8545">getRequirements(): HashMap&lt;CriterionName, Criterion&gt;</text><ellipse cx="682" cy="802.8047" fill="#84BE84" rx="3" ry="3" style="stroke:#038048;stroke-width:1.0;"/><text fill="#000000" font-family="sans-serif" font-size="14" lengthAdjust="spacing" textLength="86" x="691" y="806.1514">getAge(): int</text><ellipse cx="682" cy="819.1016" fill="#84BE84" rx="3" ry="3" style="stroke:#038048;stroke-width:1.0;"/><text fill="#000000" font-family="sans-serif" font-size="14" lengthAdjust="spacing" textLength="134" x="691" y="822.4482">getGender(): String</text><ellipse cx="682" cy="835.3984" fill="#84BE84" rx="3" ry="3" style="stroke:#038048;stroke-width:1.0;"/><text fill="#000000" font-family="sans-serif" font-size="14" lengthAdjust="spacing" textLength="204" x="691" y="838.7451">foodToString(boolean): String</text><ellipse cx="682" cy="851.6953" fill="#84BE84" rx="3" ry="3" style="stroke:#038048;stroke-width:1.0;"/><text fill="#000000" font-family="sans-serif" font-size="14" lengthAdjust="spacing" textLength="286" x="691" y="855.042">getAnimalSpecification(boolean): boolean</text><ellipse cx="682" cy="867.9922" fill="#84BE84" rx="3" ry="3" style="stroke:#038048;stroke-width:1.0;"/><text fill="#000000" font-family="sans-serif" font-size="14" lengthAdjust="spacing" textLength="173" x="691" y="871.3389">hobbiesToString(): String</text><ellipse cx="682" cy="884.2891" fill="#84BE84" rx="3" ry="3" style="stroke:#038048;stroke-width:1.0;"/><text fill="#000000" font-family="sans-serif" font-size="14" lengthAdjust="spacing" textLength="276" x="691" y="887.6357">getCriterionValue(CriterionName): String</text><ellipse cx="682" cy="900.5859" fill="#84BE84" rx="3" ry="3" style="stroke:#038048;stroke-width:1.0;"/><text fill="#000000" font-family="sans-serif" font-size="14" lengthAdjust="spacing" textLength="215" x="691" y="903.9326">missedRequirement(): boolean</text><ellipse cx="682" cy="916.8828" fill="#84BE84" rx="3" ry="3" style="stroke:#038048;stroke-width:1.0;"/><text fill="#000000" font-family="sans-serif" font-size="14" lengthAdjust="spacing" textLength="195" x="691" y="920.2295">havingIncoherent(): boolean</text><ellipse cx="682" cy="933.1797" fill="#84BE84" rx="3" ry="3" style="stroke:#038048;stroke-width:1.0;"/><text fill="#000000" font-family="sans-serif" font-size="14" lengthAdjust="spacing" textLength="186" x="691" y="936.5264">getHobbies(): Set&lt;String&gt;</text><ellipse cx="682" cy="949.4766" fill="#84BE84" rx="3" ry="3" style="stroke:#038048;stroke-width:1.0;"/><text fill="#000000" font-family="sans-serif" font-size="14" lengthAdjust="spacing" textLength="337" x="691" y="952.8232">havingThisRequirement(CriterionName): boolean</text><ellipse cx="682" cy="965.7734" fill="#84BE84" rx="3" ry="3" style="stroke:#038048;stroke-width:1.0;"/><text fill="#000000" font-family="sans-serif" font-size="14" lengthAdjust="spacing" textLength="171" x="691" y="969.1201">serialize(String): boolean</text><ellipse cx="682" cy="982.0703" fill="#84BE84" rx="3" ry="3" style="stroke:#038048;stroke-width:1.0;"/><text fill="#000000" font-family="sans-serif" font-size="14" lengthAdjust="spacing" text-decoration="underline" textLength="155" x="691" y="985.417">load(String): Teenager</text><ellipse cx="682" cy="998.3672" fill="#84BE84" rx="3" ry="3" style="stroke:#038048;stroke-width:1.0;"/><text fill="#000000" font-family="sans-serif" font-size="14" lengthAdjust="spacing" textLength="169" x="691" y="1001.7139">minimalToString(): String</text></g></a><!--class ullile.sae201.CriterionName--><a href="CriterionName.html" target="_top" title="CriterionName.html" xlink:actuate="onRequest" xlink:href="CriterionName.html" xlink:show="new" xlink:title="CriterionName.html" xlink:type="simple"><g id="elem_ullile.sae201.CriterionName"><rect codeLine="41" fill="#F1F1F1" height="194.6719" id="ullile.sae201.CriterionName" rx="2.5" ry="2.5" style="stroke:#181818;stroke-width:0.5;" width="200" x="42" y="667.5"/><ellipse cx="88.75" cy="683.5" fill="#EB937F" rx="11" ry="11" style="stroke:#181818;stroke-width:1.0;"/><path d="M92.8594,689.5 L85.1406,689.5 L85.1406,677.1094 L92.8594,677.1094 L92.8594,679.2656 L87.5938,679.2656 L87.5938,681.9375 L92.3594,681.9375 L92.3594,684.0938 L87.5938,684.0938 L87.5938,687.3438 L92.8594,687.3438 L92.8594,689.5 Z " fill="#000000"/><text fill="#000000" font-family="sans-serif" font-size="14" lengthAdjust="spacing" textLength="98" x="109.25" y="688.3467">CriterionName</text><line style="stroke:#181818;stroke-width:0.5;" x1="43" x2="241" y1="699.5" y2="699.5"/><ellipse cx="53" cy="713.1484" fill="none" rx="3" ry="3" style="stroke:#038048;stroke-width:1.0;"/><text fill="#000000" font-family="sans-serif" font-size="14" lengthAdjust="spacing" text-decoration="underline" textLength="174" x="62" y="716.4951">GUEST_ANIMAL_ALLERGY</text><ellipse cx="53" cy="729.4453" fill="none" rx="3" ry="3" style="stroke:#038048;stroke-width:1.0;"/><text fill="#000000" font-family="sans-serif" font-size="14" lengthAdjust="spacing" text-decoration="underline" textLength="131" x="62" y="732.792">HOST_HAS_ANIMAL</text><ellipse cx="53" cy="745.7422" fill="none" rx="3" ry="3" style="stroke:#038048;stroke-width:1.0;"/><text fill="#000000" font-family="sans-serif" font-size="14" lengthAdjust="spacing" text-decoration="underline" textLength="96" x="62" y="749.0889">GUEST_FOOD</text><ellipse cx="53" cy="762.0391" fill="none" rx="3" ry="3" style="stroke:#038048;stroke-width:1.0;"/><text fill="#000000" font-family="sans-serif" font-size="14" lengthAdjust="spacing" text-decoration="underline" textLength="87" x="62" y="765.3857">HOST_FOOD</text><ellipse cx="53" cy="778.3359" fill="none" rx="3" ry="3" style="stroke:#038048;stroke-width:1.0;"/><text fill="#000000" font-family="sans-serif" font-size="14" lengthAdjust="spacing" text-decoration="underline" textLength="62" x="62" y="781.6826">HOBBIES</text><ellipse cx="53" cy="794.6328" fill="none" rx="3" ry="3" style="stroke:#038048;stroke-width:1.0;"/><text fill="#000000" font-family="sans-serif" font-size="14" lengthAdjust="spacing" text-decoration="underline" textLength="60" x="62" y="797.9795">GENDER</text><ellipse cx="53" cy="810.9297" fill="none" rx="3" ry="3" style="stroke:#038048;stroke-width:1.0;"/><text fill="#000000" font-family="sans-serif" font-size="14" lengthAdjust="spacing" text-decoration="underline" textLength="98" x="62" y="814.2764">PAIR_GENDER</text><ellipse cx="53" cy="827.2266" fill="none" rx="3" ry="3" style="stroke:#038048;stroke-width:1.0;"/><text fill="#000000" font-family="sans-serif" font-size="14" lengthAdjust="spacing" text-decoration="underline" textLength="61" x="62" y="830.5732">HISTORY</text><line style="stroke:#181818;stroke-width:0.5;" x1="43" x2="241" y1="837.875" y2="837.875"/><ellipse cx="53" cy="851.5234" fill="#84BE84" rx="3" ry="3" style="stroke:#038048;stroke-width:1.0;"/><text fill="#000000" font-family="sans-serif" font-size="14" lengthAdjust="spacing" textLength="106" x="62" y="854.8701">getType(): char</text></g></a><!--class ullile.sae201.Platform--><a href="Platform.html" target="_top" title="Platform.html" xlink:actuate="onRequest" xlink:href="Platform.html" xlink:show="new" xlink:title="Platform.html" xlink:type="simple"><g id="elem_ullile.sae201.Platform"><rect codeLine="53" fill="#F1F1F1" height="210.9688" id="ullile.sae201.Platform" rx="2.5" ry="2.5" style="stroke:#181818;stroke-width:0.5;" width="396" x="794" y="173"/><ellipse cx="959.75" cy="189" fill="#ADD1B2" rx="11" ry="11" style="stroke:#181818;stroke-width:1.0;"/><path d="M962.7188,194.6406 Q962.1406,194.9375 961.5,195.0781 Q960.8594,195.2344 960.1563,195.2344 Q957.6563,195.2344 956.3281,193.5938 Q955.0156,191.9375 955.0156,188.8125 Q955.0156,185.6875 956.3281,184.0313 Q957.6563,182.375 960.1563,182.375 Q960.8594,182.375 961.5,182.5313 Q962.1563,182.6875 962.7188,182.9844 L962.7188,185.7031 Q962.0938,185.125 961.5,184.8594 Q960.9063,184.5781 960.2813,184.5781 Q958.9375,184.5781 958.25,185.6563 Q957.5625,186.7188 957.5625,188.8125 Q957.5625,190.9063 958.25,191.9844 Q958.9375,193.0469 960.2813,193.0469 Q960.9063,193.0469 961.5,192.7813 Q962.0938,192.5 962.7188,191.9219 L962.7188,194.6406 Z " fill="#000000"/><text fill="#000000" font-family="sans-serif" font-size="14" lengthAdjust="spacing" textLength="56" x="980.25" y="193.8467">Platform</text><line style="stroke:#181818;stroke-width:0.5;" x1="795" x2="1189" y1="205" y2="205"/><line style="stroke:#181818;stroke-width:0.5;" x1="795" x2="1189" y1="213" y2="213"/><ellipse cx="805" cy="226.6484" fill="#84BE84" rx="3" ry="3" style="stroke:#038048;stroke-width:1.0;"/><text fill="#000000" font-family="sans-serif" font-size="14" lengthAdjust="spacing" text-decoration="underline" textLength="370" x="814" y="229.9951">haveCommunHobbies(Teenager, Teenager): boolean</text><ellipse cx="805" cy="242.9453" fill="#84BE84" rx="3" ry="3" style="stroke:#038048;stroke-width:1.0;"/><text fill="#000000" font-family="sans-serif" font-size="14" lengthAdjust="spacing" text-decoration="underline" textLength="287" x="814" y="246.292">grouching(Teenager, Teenager): boolean</text><ellipse cx="805" cy="259.2422" fill="#84BE84" rx="3" ry="3" style="stroke:#038048;stroke-width:1.0;"/><text fill="#000000" font-family="sans-serif" font-size="14" lengthAdjust="spacing" textLength="207" x="814" y="262.5889">addTeenager(Teenager): void</text><ellipse cx="805" cy="275.5391" fill="#84BE84" rx="3" ry="3" style="stroke:#038048;stroke-width:1.0;"/><text fill="#000000" font-family="sans-serif" font-size="14" lengthAdjust="spacing" textLength="233" x="814" y="278.8857">removeTeenager(Teenager): void</text><ellipse cx="805" cy="291.8359" fill="#84BE84" rx="3" ry="3" style="stroke:#038048;stroke-width:1.0;"/><text fill="#000000" font-family="sans-serif" font-size="14" lengthAdjust="spacing" textLength="155" x="814" y="295.1826">verifyAllCriterion(): void</text><ellipse cx="805" cy="308.1328" fill="#84BE84" rx="3" ry="3" style="stroke:#038048;stroke-width:1.0;"/><text fill="#000000" font-family="sans-serif" font-size="14" lengthAdjust="spacing" textLength="275" x="814" y="311.4795">purgeIncoherentTeenager(int): boolean</text><ellipse cx="805" cy="324.4297" fill="#84BE84" rx="3" ry="3" style="stroke:#038048;stroke-width:1.0;"/><text fill="#000000" font-family="sans-serif" font-size="14" lengthAdjust="spacing" textLength="258" x="814" y="327.7764">purgeIncoherentTeenager(): boolean</text><ellipse cx="805" cy="340.7266" fill="#84BE84" rx="3" ry="3" style="stroke:#038048;stroke-width:1.0;"/><text fill="#000000" font-family="sans-serif" font-size="14" lengthAdjust="spacing" textLength="347" x="814" y="344.0732">purgeIncoherentTeenagerByNumber(int): boolean</text><ellipse cx="805" cy="357.0234" fill="#84BE84" rx="3" ry="3" style="stroke:#038048;stroke-width:1.0;"/><text fill="#000000" font-family="sans-serif" font-size="14" lengthAdjust="spacing" textLength="353" x="814" y="360.3701">getTeenagerHostByName(String, String): Teenager</text><ellipse cx="805" cy="373.3203" fill="#84BE84" rx="3" ry="3" style="stroke:#038048;stroke-width:1.0;"/><text fill="#000000" font-family="sans-serif" font-size="14" lengthAdjust="spacing" textLength="363" x="814" y="376.667">getTeenagerGuestByName(String, String): Teenager</text></g></a><!--class ullile.sae201.CSVFile--><a href="CSVFile.html" target="_top" title="CSVFile.html" xlink:actuate="onRequest" xlink:href="CSVFile.html" xlink:show="new" xlink:title="CSVFile.html" xlink:type="simple"><g id="elem_ullile.sae201.CSVFile"><rect codeLine="66" fill="#F1F1F1" height="210.9688" id="ullile.sae201.CSVFile" rx="2.5" ry="2.5" style="stroke:#181818;stroke-width:0.5;" width="462" x="297" y="173"/><ellipse cx="498.25" cy="189" fill="#ADD1B2" rx="11" ry="11" style="stroke:#181818;stroke-width:1.0;"/><path d="M501.2188,194.6406 Q500.6406,194.9375 500,195.0781 Q499.3594,195.2344 498.6563,195.2344 Q496.1563,195.2344 494.8281,193.5938 Q493.5156,191.9375 493.5156,188.8125 Q493.5156,185.6875 494.8281,184.0313 Q496.1563,182.375 498.6563,182.375 Q499.3594,182.375 500,182.5313 Q500.6563,182.6875 501.2188,182.9844 L501.2188,185.7031 Q500.5938,185.125 500,184.8594 Q499.4063,184.5781 498.7813,184.5781 Q497.4375,184.5781 496.75,185.6563 Q496.0625,186.7188 496.0625,188.8125 Q496.0625,190.9063 496.75,191.9844 Q497.4375,193.0469 498.7813,193.0469 Q499.4063,193.0469 500,192.7813 Q500.5938,192.5 501.2188,191.9219 L501.2188,194.6406 Z " fill="#000000"/><text fill="#000000" font-family="sans-serif" font-size="14" lengthAdjust="spacing" textLength="51" x="518.75" y="193.8467">CSVFile</text><line style="stroke:#181818;stroke-width:0.5;" x1="298" x2="758" y1="205" y2="205"/><ellipse cx="308" cy="218.6484" fill="none" rx="3" ry="3" style="stroke:#038048;stroke-width:1.0;"/><text fill="#000000" font-family="sans-serif" font-size="14" lengthAdjust="spacing" text-decoration="underline" textLength="152" x="317" y="221.9951">FIlE_DELIMITER: String</text><line style="stroke:#181818;stroke-width:0.5;" x1="298" x2="758" y1="229.2969" y2="229.2969"/><ellipse cx="308" cy="242.9453" fill="#84BE84" rx="3" ry="3" style="stroke:#038048;stroke-width:1.0;"/><text fill="#000000" font-family="sans-serif" font-size="14" lengthAdjust="spacing" text-decoration="underline" textLength="185" x="317" y="246.292">readLine(String): Teenager</text><ellipse cx="308" cy="259.2422" fill="#84BE84" rx="3" ry="3" style="stroke:#038048;stroke-width:1.0;"/><text fill="#000000" font-family="sans-serif" font-size="14" lengthAdjust="spacing" text-decoration="underline" textLength="258" x="317" y="262.5889">getDirWhoResourcesIs(String): String</text><ellipse cx="308" cy="275.5391" fill="#84BE84" rx="3" ry="3" style="stroke:#038048;stroke-width:1.0;"/><text fill="#000000" font-family="sans-serif" font-size="14" lengthAdjust="spacing" text-decoration="underline" textLength="190" x="317" y="278.8857">headerModifier(String): void</text><ellipse cx="308" cy="291.8359" fill="#84BE84" rx="3" ry="3" style="stroke:#038048;stroke-width:1.0;"/><text fill="#000000" font-family="sans-serif" font-size="14" lengthAdjust="spacing" text-decoration="underline" textLength="218" x="317" y="295.1826">getDirWhoResourcesIs(): String</text><ellipse cx="308" cy="308.1328" fill="#84BE84" rx="3" ry="3" style="stroke:#038048;stroke-width:1.0;"/><text fill="#000000" font-family="sans-serif" font-size="14" lengthAdjust="spacing" text-decoration="underline" textLength="210" x="317" y="311.4795">read(String, boolean): Platform</text><ellipse cx="308" cy="324.4297" fill="#84BE84" rx="3" ry="3" style="stroke:#038048;stroke-width:1.0;"/><text fill="#000000" font-family="sans-serif" font-size="14" lengthAdjust="spacing" text-decoration="underline" textLength="146" x="317" y="327.7764">read(String): Platform</text><ellipse cx="308" cy="340.7266" fill="#84BE84" rx="3" ry="3" style="stroke:#038048;stroke-width:1.0;"/><text fill="#000000" font-family="sans-serif" font-size="14" lengthAdjust="spacing" text-decoration="underline" textLength="255" x="317" y="344.0732">exportData(Platform, String): boolean</text><ellipse cx="308" cy="357.0234" fill="#84BE84" rx="3" ry="3" style="stroke:#038048;stroke-width:1.0;"/><text fill="#000000" font-family="sans-serif" font-size="14" lengthAdjust="spacing" text-decoration="underline" textLength="130" x="317" y="360.3701">main(String[]): void</text><ellipse cx="308" cy="373.3203" fill="#84BE84" rx="3" ry="3" style="stroke:#038048;stroke-width:1.0;"/><text fill="#000000" font-family="sans-serif" font-size="14" lengthAdjust="spacing" text-decoration="underline" textLength="436" x="317" y="376.667">exportAppariement(ArrayList&lt;Arete&lt;Teenager&gt;&gt;, String): void</text></g></a><!--class ullile.sae201.Criterion--><a href="Criterion.html" target="_top" title="Criterion.html" xlink:actuate="onRequest" xlink:href="Criterion.html" xlink:show="new" xlink:title="Criterion.html" xlink:type="simple"><g id="elem_ullile.sae201.Criterion"><rect codeLine="79" fill="#F1F1F1" height="129.4844" id="ullile.sae201.Criterion" rx="2.5" ry="2.5" style="stroke:#181818;stroke-width:0.5;" width="240" x="22" y="214"/><ellipse cx="108.75" cy="230" fill="#ADD1B2" rx="11" ry="11" style="stroke:#181818;stroke-width:1.0;"/><path d="M111.7188,235.6406 Q111.1406,235.9375 110.5,236.0781 Q109.8594,236.2344 109.1563,236.2344 Q106.6563,236.2344 105.3281,234.5938 Q104.0156,232.9375 104.0156,229.8125 Q104.0156,226.6875 105.3281,225.0313 Q106.6563,223.375 109.1563,223.375 Q109.8594,223.375 110.5,223.5313 Q111.1563,223.6875 111.7188,223.9844 L111.7188,226.7031 Q111.0938,226.125 110.5,225.8594 Q109.9063,225.5781 109.2813,225.5781 Q107.9375,225.5781 107.25,226.6563 Q106.5625,227.7188 106.5625,229.8125 Q106.5625,231.9063 107.25,232.9844 Q107.9375,234.0469 109.2813,234.0469 Q109.9063,234.0469 110.5,233.7813 Q111.0938,233.5 111.7188,232.9219 L111.7188,235.6406 Z " fill="#000000"/><text fill="#000000" font-family="sans-serif" font-size="14" lengthAdjust="spacing" textLength="58" x="129.25" y="234.8467">Criterion</text><line style="stroke:#181818;stroke-width:0.5;" x1="23" x2="261" y1="246" y2="246"/><ellipse cx="33" cy="259.6484" fill="none" rx="3" ry="3" style="stroke:#038048;stroke-width:1.0;"/><text fill="#000000" font-family="sans-serif" font-size="14" lengthAdjust="spacing" text-decoration="underline" textLength="76" x="42" y="262.9951">YES: String</text><ellipse cx="33" cy="275.9453" fill="none" rx="3" ry="3" style="stroke:#038048;stroke-width:1.0;"/><text fill="#000000" font-family="sans-serif" font-size="14" lengthAdjust="spacing" text-decoration="underline" textLength="70" x="42" y="279.292">NO: String</text><line style="stroke:#181818;stroke-width:0.5;" x1="23" x2="261" y1="286.5938" y2="286.5938"/><ellipse cx="33" cy="300.2422" fill="#84BE84" rx="3" ry="3" style="stroke:#038048;stroke-width:1.0;"/><text fill="#000000" font-family="sans-serif" font-size="14" lengthAdjust="spacing" textLength="214" x="42" y="303.5889">Criterion(String, CriterionName)</text><ellipse cx="33" cy="316.5391" fill="#84BE84" rx="3" ry="3" style="stroke:#038048;stroke-width:1.0;"/><text fill="#000000" font-family="sans-serif" font-size="14" lengthAdjust="spacing" textLength="118" x="42" y="319.8857">isValid(): boolean</text><ellipse cx="33" cy="332.8359" fill="#84BE84" rx="3" ry="3" style="stroke:#038048;stroke-width:1.0;"/><text fill="#000000" font-family="sans-serif" font-size="14" lengthAdjust="spacing" textLength="120" x="42" y="336.1826">getValue(): String</text></g></a><!--class java.io.Serializable--><g id="elem_java.io.Serializable"><rect codeLine="97" fill="#F1F1F1" height="48" id="java.io.Serializable" rx="2.5" ry="2.5" style="stroke:#181818;stroke-width:0.5;" width="108" x="1136" y="41"/><ellipse cx="1151" cy="57" fill="#B4A7E5" rx="11" ry="11" style="stroke:#181818;stroke-width:1.0;"/><path d="M1146.9219,52.7656 L1146.9219,50.6094 L1154.3125,50.6094 L1154.3125,52.7656 L1151.8438,52.7656 L1151.8438,60.8438 L1154.3125,60.8438 L1154.3125,63 L1146.9219,63 L1146.9219,60.8438 L1149.3906,60.8438 L1149.3906,52.7656 L1146.9219,52.7656 Z " fill="#000000"/><text fill="#000000" font-family="sans-serif" font-size="14" font-style="italic" lengthAdjust="spacing" textLength="76" x="1165" y="61.8467">Serializable</text><line style="stroke:#181818;stroke-width:0.5;" x1="1137" x2="1243" y1="73" y2="73"/><line style="stroke:#181818;stroke-width:0.5;" x1="1137" x2="1243" y1="81" y2="81"/></g><!--reverse link java.io.Serializable to ullile.sae201.Teenager--><g id="link_java.io.Serializable_ullile.sae201.Teenager"><path codeLine="87" d="M1203.71,108.54 C1205.49,115.63 1207.03,122.97 1208,130 C1223.43,241.83 1246.21,277.77 1208,384 C1187.51,440.97 1154.36,495.48 1117.11,544.53 " fill="none" id="java.io.Serializable-backto-ullile.sae201.Teenager" style="stroke:#181818;stroke-width:1.0;stroke-dasharray:7.0,7.0;"/><polygon fill="none" points="1196.91,110.23,1198.15,89.08,1210.37,106.39,1196.91,110.23" style="stroke:#181818;stroke-width:1.0;"/></g><!--link ullile.sae201.Teenager to ullile.sae201.Country--><g id="link_ullile.sae201.Teenager_ullile.sae201.Country"><path codeLine="88" d="M736.76,1009.15 C719.76,1035.45 703.65,1060.35 689.86,1081.68 " fill="none" id="ullile.sae201.Teenager-to-ullile.sae201.Country" style="stroke:#181818;stroke-width:1.0;"/><polygon fill="#181818" points="687.13,1085.9,695.3745,1080.5122,689.8439,1081.7006,688.6555,1076.17,687.13,1085.9" style="stroke:#181818;stroke-width:1.0;"/><text fill="#000000" font-family="sans-serif" font-size="13" lengthAdjust="spacing" textLength="48" x="713" y="1052.0669">country</text></g><!--link ullile.sae201.Teenager to ullile.sae201.Teenager--><g id="link_ullile.sae201.Teenager_ullile.sae201.Teenager"><path codeLine="89" d="M1117.37,722.43 C1138.58,731.12 1152,745.31 1152,765 C1152,783.15 1140.6,796.63 1122.2,805.44 " fill="none" id="ullile.sae201.Teenager-to-ullile.sae201.Teenager" style="stroke:#181818;stroke-width:1.0;"/><polygon fill="#181818" points="1117.37,807.57,1127.2189,807.5757,1121.9402,805.542,1123.974,800.2633,1117.37,807.57" style="stroke:#181818;stroke-width:1.0;"/><text fill="#000000" font-family="sans-serif" font-size="13" lengthAdjust="spacing" textLength="43" x="1158" y="769.5669">history</text></g><!--link ullile.sae201.Platform to ullile.sae201.Teenager--><g id="link_ullile.sae201.Platform_ullile.sae201.Teenager"><path codeLine="90" d="M970.86,384.03 C962.96,423.09 953.61,469.29 944.21,515.78 " fill="none" id="ullile.sae201.Platform-to-ullile.sae201.Teenager" style="stroke:#181818;stroke-width:1.0;"/><polygon fill="#181818" points="943.18,520.87,948.8719,512.8324,944.1633,515.9676,941.0281,511.2591,943.18,520.87" style="stroke:#181818;stroke-width:1.0;"/><text fill="#000000" font-family="sans-serif" font-size="13" lengthAdjust="spacing" textLength="45" x="997.5" y="427.0669">HOSTS</text><text fill="#000000" font-family="sans-serif" font-size="13" lengthAdjust="spacing" textLength="53" x="993.5" y="442.1997">GUESTS</text><text fill="#000000" font-family="sans-serif" font-size="13" lengthAdjust="spacing" textLength="104" x="968" y="457.3325">SORTED_HOSTS</text><text fill="#000000" font-family="sans-serif" font-size="13" lengthAdjust="spacing" textLength="112" x="964" y="472.4653">SORTED_GUESTS</text><text fill="#000000" font-family="sans-serif" font-size="13" lengthAdjust="spacing" textLength="65" x="987.5" y="487.5981">teenagers</text><text fill="#000000" font-family="sans-serif" font-size="13" lengthAdjust="spacing" textLength="7" x="937.6789" y="509.6822">*</text></g><!--link ullile.sae201.Platform to ullile.sae201.Country--><g id="link_ullile.sae201.Platform_ullile.sae201.Country"><path codeLine="91" d="M793.82,380.76 C690.12,435.77 581.78,497.29 568,521 C459.01,708.51 513.63,799.04 568,1009 C574.49,1034.07 586.53,1059.43 599.24,1081.57 " fill="none" id="ullile.sae201.Platform-to-ullile.sae201.Country" style="stroke:#181818;stroke-width:1.0;"/><polygon fill="#181818" points="601.79,1085.95,600.7284,1076.1585,599.2786,1081.6265,593.8107,1080.1767,601.79,1085.95" style="stroke:#181818;stroke-width:1.0;"/><text fill="#000000" font-family="sans-serif" font-size="13" lengthAdjust="spacing" textLength="78" x="572" y="762.0669">hostCountry</text><text fill="#000000" font-family="sans-serif" font-size="13" lengthAdjust="spacing" textLength="84" x="569" y="777.1997">inviteCountry</text></g><!--reverse link java.io.Serializable to ullile.sae201.Criterion--><g id="link_java.io.Serializable_ullile.sae201.Criterion"><path codeLine="92" d="M1115.68,68.12 C911.92,74.35 354.58,94.49 280,130 C241.37,148.39 208.22,182.76 184.1,213.69 " fill="none" id="java.io.Serializable-backto-ullile.sae201.Criterion" style="stroke:#181818;stroke-width:1.0;stroke-dasharray:7.0,7.0;"/><polygon fill="none" points="1115.75,61.11,1135.95,67.51,1116.17,75.1,1115.75,61.11" style="stroke:#181818;stroke-width:1.0;"/></g><!--link ullile.sae201.Criterion to ullile.sae201.CriterionName--><g id="link_ullile.sae201.Criterion_ullile.sae201.CriterionName"><path codeLine="93" d="M142,343.34 C142,424.62 142,566.05 142,662.27 " fill="none" id="ullile.sae201.Criterion-to-ullile.sae201.CriterionName" style="stroke:#181818;stroke-width:1.0;"/><polygon fill="#181818" points="142,667.39,146,658.39,142,662.39,138,658.39,142,667.39" style="stroke:#181818;stroke-width:1.0;"/><text fill="#000000" font-family="sans-serif" font-size="13" lengthAdjust="spacing" textLength="30" x="143" y="457.0669">label</text></g><text fill="#888888" font-family="sans-serif" font-size="10" lengthAdjust="spacing" textLength="186" x="533.5" y="1246.2822">UMLDoclet 2.1.0, PlantUML 1.2022.14</text><!--SRC=[fLTjR-8u4FxUNs6jj1AzTj6s7ok4b48AaNXP4RQhgbiX4mRYasFdR0STjzV_VivxW3YXU_cIbtd6CvuPppD122660v0XzW15b18ANOdX_kiT-dLrXR8BM1IW0O-O4WVq-fezTNqLqBSt3KILwvTKM17l7TqyBQpPm3O8tM-MCpF8HlPYQirU359dQKsEPJT4ZWIFFBzp_O3Md5F0h02ybzlmA9OIBG4Ote7G6yaVwtToauixhXA4xMvHVfzm3zCXLd2RH-NwuvhffnF5C18xSDWUKx9Pm5yH4H00K_76zfniZi5uSuGP2A904CvcEgF5-XzHh0KB2AckZj-pvF4Wr7bRK_X1b3-AGAfE7foQP9bqHWA7FZpV_G_T-pRTii8owO2pFGYzqK9JfzkmyrfdTg1YM9oy57WcVk82M3CaBfOP9bB6cA9ypc2Lz2J8CPR-58Uz4uUBr_xP2jOkSOCmTIOQ0TleC1YSt7A-MV9Kqia2OTwFnKY0gHk2HxR4qn7dhA9K6qUVhzS4P673l7YnlMTC8pYkKuDMe4CBfsUjtWsyrzeEyxWFeWce7HcdBYUkWkgbXljrworz8erdosH1QeHk4Vz0fx42ovAc76zAR5xFfv58KjCGvlTJIgZw6XD3zRsD7aRVRNUvicREr9gihCd4NenCBNyyryYnvMRenWMVvlDXqpADyiT7ntQDh3GRsWk3KBFPOjM863lkShvuEQkKvI5CpftdOs4chMyKgoqNWGvo_jWMNrrUCE114B6y6CisTd4ht2My6bV3nSenknJyLy7MCKl0zt0PLdTYiZrOb1OrLi-96O7cPxHONBSraxycbG_Y7m-pA5WtcuhpdS77N2gj4ZV_uo71U3uhoWcnNQnzLaq3z_b9JthnYKsVMaSvXzgheJrnfixINjGsqX8i06ycX45BlwaKcMOv8dxuV06IHy83wSXIkT6Mhss1cFAD9fDYtAehZ1PhrnVigOXqILVvMMpNQWV3to4NCTtZJevi6J1AtG0JbXbwVMlUVch62aCiICeubX3uC25IzIm12dfvjlfzqsXtNb3veQoIG5jHlTXkIzHdythEBdj0df9ZrZpzEtYEn-ackax7XKR2-nFlSPVmhfjHBzOp9khzs-sULtVnX_7bIp__GT0DFdseH-Kl3qYF0ufNO4NdZs6V_lXKWSPyvlva2U_fkpjVBEtXAlkQlUL2bMd9-eKBBttTbhANduomlGxhuCHnSoIAB1JOiZ0IAzKiFI2Arq2lAd4kVqKp6vNQqLqLn3QMLUrMjJs88KYFe_7j-tGov1u5XUwxTzslj_5-cT9VqMVD9J8XaFy0]--></g></svg>