<?xml version="1.0" encoding="UTF-8" standalone="no"?><svg xmlns="http://www.w3.org/2000/svg" xmlns:xlink="http://www.w3.org/1999/xlink" contentStyleType="text/css" height="364px" preserveAspectRatio="none" style="width:417px;height:364px;background:#FFFFFF;" version="1.1" viewBox="0 0 417 364" width="417px" zoomAndPan="magnify"><defs/><g><!--class ullile.sae201.Platform--><a href="Platform.html" target="_top" title="Platform.html" xlink:actuate="onRequest" xlink:href="Platform.html" xlink:show="new" xlink:title="Platform.html" xlink:type="simple"><g id="elem_ullile.sae201.Platform"><rect codeLine="5" fill="#F1F1F1" height="330.9844" id="ullile.sae201.Platform" rx="2.5" ry="2.5" style="stroke:#181818;stroke-width:0.5;" width="396" x="7" y="7"/><ellipse cx="171.75" cy="25.9688" fill="#ADD1B2" rx="11" ry="11" style="stroke:#181818;stroke-width:1.0;"/><path d="M174.7188,31.6094 Q174.1406,31.9063 173.5,32.0469 Q172.8594,32.2031 172.1563,32.2031 Q169.6563,32.2031 168.3281,30.5625 Q167.0156,28.9063 167.0156,25.7813 Q167.0156,22.6563 168.3281,21 Q169.6563,19.3438 172.1563,19.3438 Q172.8594,19.3438 173.5,19.5 Q174.1563,19.6563 174.7188,19.9531 L174.7188,22.6719 Q174.0938,22.0938 173.5,21.8281 Q172.9063,21.5469 172.2813,21.5469 Q170.9375,21.5469 170.25,22.625 Q169.5625,23.6875 169.5625,25.7813 Q169.5625,27.875 170.25,28.9531 Q170.9375,30.0156 172.2813,30.0156 Q172.9063,30.0156 173.5,29.75 Q174.0938,29.4688 174.7188,28.8906 L174.7188,31.6094 Z " fill="#000000"/><text fill="#000000" font-family="sans-serif" font-size="14" lengthAdjust="spacing" textLength="56" x="193.25" y="24.9951">Platform</text><text fill="#000000" font-family="sans-serif" font-size="10" lengthAdjust="spacing" textLength="58" x="192.25" y="37.5791">ullile.sae201</text><line style="stroke:#181818;stroke-width:0.5;" x1="8" x2="402" y1="44.9375" y2="44.9375"/><ellipse cx="18" cy="58.5859" fill="none" rx="3" ry="3" style="stroke:#038048;stroke-width:1.0;"/><text fill="#000000" font-family="sans-serif" font-size="14" lengthAdjust="spacing" textLength="171" x="27" y="61.9326">HOSTS: Set&lt;Teenager&gt;</text><ellipse cx="18" cy="74.8828" fill="none" rx="3" ry="3" style="stroke:#038048;stroke-width:1.0;"/><text fill="#000000" font-family="sans-serif" font-size="14" lengthAdjust="spacing" textLength="180" x="27" y="78.2295">GUESTS: Set&lt;Teenager&gt;</text><ellipse cx="18" cy="91.1797" fill="none" rx="3" ry="3" style="stroke:#038048;stroke-width:1.0;"/><text fill="#000000" font-family="sans-serif" font-size="14" lengthAdjust="spacing" textLength="237" x="27" y="94.5264">SORTED_HOSTS: Set&lt;Teenager&gt;</text><ellipse cx="18" cy="107.4766" fill="none" rx="3" ry="3" style="stroke:#038048;stroke-width:1.0;"/><text fill="#000000" font-family="sans-serif" font-size="14" lengthAdjust="spacing" textLength="246" x="27" y="110.8232">SORTED_GUESTS: Set&lt;Teenager&gt;</text><line style="stroke:#181818;stroke-width:0.5;" x1="8" x2="402" y1="118.125" y2="118.125"/><ellipse cx="18" cy="131.7734" fill="#84BE84" rx="3" ry="3" style="stroke:#038048;stroke-width:1.0;"/><text fill="#000000" font-family="sans-serif" font-size="14" lengthAdjust="spacing" text-decoration="underline" textLength="370" x="27" y="135.1201">haveCommunHobbies(Teenager, Teenager): boolean</text><ellipse cx="18" cy="148.0703" fill="#84BE84" rx="3" ry="3" style="stroke:#038048;stroke-width:1.0;"/><text fill="#000000" font-family="sans-serif" font-size="14" lengthAdjust="spacing" text-decoration="underline" textLength="287" x="27" y="151.417">grouching(Teenager, Teenager): boolean</text><ellipse cx="18" cy="164.3672" fill="#84BE84" rx="3" ry="3" style="stroke:#038048;stroke-width:1.0;"/><text fill="#000000" font-family="sans-serif" font-size="14" lengthAdjust="spacing" textLength="207" x="27" y="167.7139">addTeenager(Teenager): void</text><ellipse cx="18" cy="180.6641" fill="#84BE84" rx="3" ry="3" style="stroke:#038048;stroke-width:1.0;"/><text fill="#000000" font-family="sans-serif" font-size="14" lengthAdjust="spacing" textLength="233" x="27" y="184.0107">removeTeenager(Teenager): void</text><ellipse cx="18" cy="196.9609" fill="#84BE84" rx="3" ry="3" style="stroke:#038048;stroke-width:1.0;"/><text fill="#000000" font-family="sans-serif" font-size="14" lengthAdjust="spacing" textLength="155" x="27" y="200.3076">verifyAllCriterion(): void</text><ellipse cx="18" cy="213.2578" fill="#84BE84" rx="3" ry="3" style="stroke:#038048;stroke-width:1.0;"/><text fill="#000000" font-family="sans-serif" font-size="14" lengthAdjust="spacing" textLength="275" x="27" y="216.6045">purgeIncoherentTeenager(int): boolean</text><ellipse cx="18" cy="229.5547" fill="#84BE84" rx="3" ry="3" style="stroke:#038048;stroke-width:1.0;"/><text fill="#000000" font-family="sans-serif" font-size="14" lengthAdjust="spacing" textLength="258" x="27" y="232.9014">purgeIncoherentTeenager(): boolean</text><ellipse cx="18" cy="245.8516" fill="#84BE84" rx="3" ry="3" style="stroke:#038048;stroke-width:1.0;"/><text fill="#000000" font-family="sans-serif" font-size="14" lengthAdjust="spacing" textLength="347" x="27" y="249.1982">purgeIncoherentTeenagerByNumber(int): boolean</text><ellipse cx="18" cy="262.1484" fill="#84BE84" rx="3" ry="3" style="stroke:#038048;stroke-width:1.0;"/><text fill="#000000" font-family="sans-serif" font-size="14" lengthAdjust="spacing" textLength="231" x="27" y="265.4951">getTeenagers(): Set&lt;Teenager&gt;</text><ellipse cx="18" cy="278.4453" fill="#84BE84" rx="3" ry="3" style="stroke:#038048;stroke-width:1.0;"/><text fill="#000000" font-family="sans-serif" font-size="14" lengthAdjust="spacing" textLength="353" x="27" y="281.792">getTeenagerHostByName(String, String): Teenager</text><ellipse cx="18" cy="294.7422" fill="#84BE84" rx="3" ry="3" style="stroke:#038048;stroke-width:1.0;"/><text fill="#000000" font-family="sans-serif" font-size="14" lengthAdjust="spacing" textLength="363" x="27" y="298.0889">getTeenagerGuestByName(String, String): Teenager</text><ellipse cx="18" cy="311.0391" fill="#84BE84" rx="3" ry="3" style="stroke:#038048;stroke-width:1.0;"/><text fill="#000000" font-family="sans-serif" font-size="14" lengthAdjust="spacing" textLength="209" x="27" y="314.3857">setHostCountry(Country): void</text><ellipse cx="18" cy="327.3359" fill="#84BE84" rx="3" ry="3" style="stroke:#038048;stroke-width:1.0;"/><text fill="#000000" font-family="sans-serif" font-size="14" lengthAdjust="spacing" textLength="213" x="27" y="330.6826">setInviteCountry(Country): void</text></g></a><text fill="#888888" font-family="sans-serif" font-size="10" lengthAdjust="spacing" textLength="186" x="111.5" y="354.2666">UMLDoclet 2.1.0, PlantUML 1.2022.14</text><!--SRC=[bPFVQy903CVVzrS4OT2X59KzYGYRYWhR7Ai-EHbd6zk3kulSNGkT-B_lT5RT_B7PbuJaas-Ef040C6X1CObcmK8CSC4qiwH1aS8RbuQ4HmWe5pQ7EKSHcTzHYJOX5zx4Gy6CWLBJy4zirEvRhuBPEMdvhhQXQYiLWWlq3SDwjLO2Pk17n2zAO38fN3-nKaodiDpqM7_b_Z0O1Gq8q3P7Y8h5g5lxR6_SlPGEXc-ZRkVZiiOMkYorD9PP7gwWdB0CsoHbgleqct4qNa5NeF3k6Z0Z4iZK2O5OKnecNCN_AoopA2hItW6N4O_sa4P96VxDPQZvF7yGegsvTJufxuXPf3h6WGefGOtAxaIvigVUTmw_WdtCNr8vEzyYnXrgrhfdDdc0zSbOf-h-To-msWsx0j_MLHVCoS9UYjTKkgjQjsfJggpElQqz6gd31Yfp4xy0hhQNvUQ26kP4QpD-VkfGADpjrlsQNws0EnLbNHHktIhDPdzV]--></g></svg>