<?xml version="1.0" encoding="UTF-8" standalone="no"?><svg xmlns="http://www.w3.org/2000/svg" xmlns:xlink="http://www.w3.org/1999/xlink" contentStyleType="text/css" height="665px" preserveAspectRatio="none" style="width:460px;height:665px;background:#FFFFFF;" version="1.1" viewBox="0 0 460 665" width="460px" zoomAndPan="magnify"><defs/><g><!--class ullile.sae201.Teenager--><a href="Teenager.html" target="_top" title="Teenager.html" xlink:actuate="onRequest" xlink:href="Teenager.html" xlink:show="new" xlink:title="Teenager.html" xlink:type="simple"><g id="elem_ullile.sae201.Teenager"><rect codeLine="5" fill="#F1F1F1" height="534.8438" id="ullile.sae201.Teenager" rx="2.5" ry="2.5" style="stroke:#181818;stroke-width:0.5;" width="446" x="7" y="105"/><ellipse cx="192.25" cy="123.9688" fill="#ADD1B2" rx="11" ry="11" style="stroke:#181818;stroke-width:1.0;"/><path d="M195.2188,129.6094 Q194.6406,129.9063 194,130.0469 Q193.3594,130.2031 192.6563,130.2031 Q190.1563,130.2031 188.8281,128.5625 Q187.5156,126.9063 187.5156,123.7813 Q187.5156,120.6563 188.8281,119 Q190.1563,117.3438 192.6563,117.3438 Q193.3594,117.3438 194,117.5 Q194.6563,117.6563 195.2188,117.9531 L195.2188,120.6719 Q194.5938,120.0938 194,119.8281 Q193.4063,119.5469 192.7813,119.5469 Q191.4375,119.5469 190.75,120.625 Q190.0625,121.6875 190.0625,123.7813 Q190.0625,125.875 190.75,126.9531 Q191.4375,128.0156 192.7813,128.0156 Q193.4063,128.0156 194,127.75 Q194.5938,127.4688 195.2188,126.8906 L195.2188,129.6094 Z " fill="#000000"/><text fill="#000000" font-family="sans-serif" font-size="14" lengthAdjust="spacing" textLength="67" x="212.75" y="122.9951">Teenager</text><text fill="#000000" font-family="sans-serif" font-size="10" lengthAdjust="spacing" textLength="58" x="217.25" y="135.5791">ullile.sae201</text><line style="stroke:#181818;stroke-width:0.5;" x1="8" x2="452" y1="142.9375" y2="142.9375"/><ellipse cx="18" cy="156.5859" fill="#84BE84" rx="3" ry="3" style="stroke:#038048;stroke-width:1.0;"/><text fill="#000000" font-family="sans-serif" font-size="14" lengthAdjust="spacing" textLength="303" x="27" y="159.9326">Teenager(String, String, LocalDate, Country)</text><ellipse cx="18" cy="172.8828" fill="#84BE84" rx="3" ry="3" style="stroke:#038048;stroke-width:1.0;"/><text fill="#000000" font-family="sans-serif" font-size="14" lengthAdjust="spacing" textLength="289" x="27" y="176.2295">Teenager(String, String, LocalDate, String)</text><ellipse cx="18" cy="189.1797" fill="#84BE84" rx="3" ry="3" style="stroke:#038048;stroke-width:1.0;"/><text fill="#000000" font-family="sans-serif" font-size="14" lengthAdjust="spacing" textLength="220" x="27" y="192.5264">purgeInvalidRequirement(): void</text><ellipse cx="18" cy="205.4766" fill="#84BE84" rx="3" ry="3" style="stroke:#038048;stroke-width:1.0;"/><text fill="#000000" font-family="sans-serif" font-size="14" lengthAdjust="spacing" textLength="309" x="27" y="208.8232">addRequirement(CriterionName, String): void</text><ellipse cx="18" cy="221.7734" fill="#84BE84" rx="3" ry="3" style="stroke:#038048;stroke-width:1.0;"/><text fill="#000000" font-family="sans-serif" font-size="14" lengthAdjust="spacing" textLength="221" x="27" y="225.1201">addRequirement(Criterion): void</text><ellipse cx="18" cy="238.0703" fill="#84BE84" rx="3" ry="3" style="stroke:#038048;stroke-width:1.0;"/><text fill="#000000" font-family="sans-serif" font-size="14" lengthAdjust="spacing" textLength="334" x="27" y="241.417">replaceRequirement(CriterionName, String): void</text><ellipse cx="18" cy="254.3672" fill="#84BE84" rx="3" ry="3" style="stroke:#038048;stroke-width:1.0;"/><text fill="#000000" font-family="sans-serif" font-size="14" lengthAdjust="spacing" textLength="290" x="27" y="257.7139">compatibleWithGuest(Teenager): boolean</text><ellipse cx="18" cy="270.6641" fill="#84BE84" rx="3" ry="3" style="stroke:#038048;stroke-width:1.0;"/><text fill="#000000" font-family="sans-serif" font-size="14" lengthAdjust="spacing" textLength="359" x="27" y="274.0107">compatibleWithGuestGrapheV1(Teenager): boolean</text><ellipse cx="18" cy="286.9609" fill="#84BE84" rx="3" ry="3" style="stroke:#038048;stroke-width:1.0;"/><text fill="#000000" font-family="sans-serif" font-size="14" lengthAdjust="spacing" textLength="359" x="27" y="290.3076">compatibleWithGuestGrapheV2(Teenager): boolean</text><ellipse cx="18" cy="303.2578" fill="#84BE84" rx="3" ry="3" style="stroke:#038048;stroke-width:1.0;"/><text fill="#000000" font-family="sans-serif" font-size="14" lengthAdjust="spacing" text-decoration="underline" textLength="420" x="27" y="306.6045">booleanConverter(Teenager, CriterionName, String): boolean</text><ellipse cx="18" cy="319.5547" fill="#84BE84" rx="3" ry="3" style="stroke:#038048;stroke-width:1.0;"/><text fill="#000000" font-family="sans-serif" font-size="14" lengthAdjust="spacing" textLength="122" x="27" y="322.9014">getName(): String</text><ellipse cx="18" cy="335.8516" fill="#84BE84" rx="3" ry="3" style="stroke:#038048;stroke-width:1.0;"/><text fill="#000000" font-family="sans-serif" font-size="14" lengthAdjust="spacing" textLength="152" x="27" y="339.1982">getForename(): String</text><ellipse cx="18" cy="352.1484" fill="#84BE84" rx="3" ry="3" style="stroke:#038048;stroke-width:1.0;"/><text fill="#000000" font-family="sans-serif" font-size="14" lengthAdjust="spacing" textLength="150" x="27" y="355.4951">getCountry(): Country</text><ellipse cx="18" cy="368.4453" fill="#84BE84" rx="3" ry="3" style="stroke:#038048;stroke-width:1.0;"/><text fill="#000000" font-family="sans-serif" font-size="14" lengthAdjust="spacing" textLength="180" x="27" y="371.792">getDateNaiss(): LocalDate</text><ellipse cx="18" cy="384.7422" fill="#84BE84" rx="3" ry="3" style="stroke:#038048;stroke-width:1.0;"/><text fill="#000000" font-family="sans-serif" font-size="14" lengthAdjust="spacing" textLength="392" x="27" y="388.0889">getRequirements(): HashMap&lt;CriterionName, Criterion&gt;</text><ellipse cx="18" cy="401.0391" fill="#84BE84" rx="3" ry="3" style="stroke:#038048;stroke-width:1.0;"/><text fill="#000000" font-family="sans-serif" font-size="14" lengthAdjust="spacing" textLength="156" x="27" y="404.3857">getHistory(): Teenager</text><ellipse cx="18" cy="417.3359" fill="#84BE84" rx="3" ry="3" style="stroke:#038048;stroke-width:1.0;"/><text fill="#000000" font-family="sans-serif" font-size="14" lengthAdjust="spacing" textLength="86" x="27" y="420.6826">getAge(): int</text><ellipse cx="18" cy="433.6328" fill="#84BE84" rx="3" ry="3" style="stroke:#038048;stroke-width:1.0;"/><text fill="#000000" font-family="sans-serif" font-size="14" lengthAdjust="spacing" textLength="134" x="27" y="436.9795">getGender(): String</text><ellipse cx="18" cy="449.9297" fill="#84BE84" rx="3" ry="3" style="stroke:#038048;stroke-width:1.0;"/><text fill="#000000" font-family="sans-serif" font-size="14" lengthAdjust="spacing" textLength="204" x="27" y="453.2764">foodToString(boolean): String</text><ellipse cx="18" cy="466.2266" fill="#84BE84" rx="3" ry="3" style="stroke:#038048;stroke-width:1.0;"/><text fill="#000000" font-family="sans-serif" font-size="14" lengthAdjust="spacing" textLength="286" x="27" y="469.5732">getAnimalSpecification(boolean): boolean</text><ellipse cx="18" cy="482.5234" fill="#84BE84" rx="3" ry="3" style="stroke:#038048;stroke-width:1.0;"/><text fill="#000000" font-family="sans-serif" font-size="14" lengthAdjust="spacing" textLength="173" x="27" y="485.8701">hobbiesToString(): String</text><ellipse cx="18" cy="498.8203" fill="#84BE84" rx="3" ry="3" style="stroke:#038048;stroke-width:1.0;"/><text fill="#000000" font-family="sans-serif" font-size="14" lengthAdjust="spacing" textLength="183" x="27" y="502.167">setHistory(Teenager): void</text><ellipse cx="18" cy="515.1172" fill="#84BE84" rx="3" ry="3" style="stroke:#038048;stroke-width:1.0;"/><text fill="#000000" font-family="sans-serif" font-size="14" lengthAdjust="spacing" textLength="276" x="27" y="518.4639">getCriterionValue(CriterionName): String</text><ellipse cx="18" cy="531.4141" fill="#84BE84" rx="3" ry="3" style="stroke:#038048;stroke-width:1.0;"/><text fill="#000000" font-family="sans-serif" font-size="14" lengthAdjust="spacing" textLength="215" x="27" y="534.7607">missedRequirement(): boolean</text><ellipse cx="18" cy="547.7109" fill="#84BE84" rx="3" ry="3" style="stroke:#038048;stroke-width:1.0;"/><text fill="#000000" font-family="sans-serif" font-size="14" lengthAdjust="spacing" textLength="195" x="27" y="551.0576">havingIncoherent(): boolean</text><ellipse cx="18" cy="564.0078" fill="#84BE84" rx="3" ry="3" style="stroke:#038048;stroke-width:1.0;"/><text fill="#000000" font-family="sans-serif" font-size="14" lengthAdjust="spacing" textLength="186" x="27" y="567.3545">getHobbies(): Set&lt;String&gt;</text><ellipse cx="18" cy="580.3047" fill="#84BE84" rx="3" ry="3" style="stroke:#038048;stroke-width:1.0;"/><text fill="#000000" font-family="sans-serif" font-size="14" lengthAdjust="spacing" textLength="337" x="27" y="583.6514">havingThisRequirement(CriterionName): boolean</text><ellipse cx="18" cy="596.6016" fill="#84BE84" rx="3" ry="3" style="stroke:#038048;stroke-width:1.0;"/><text fill="#000000" font-family="sans-serif" font-size="14" lengthAdjust="spacing" textLength="171" x="27" y="599.9482">serialize(String): boolean</text><ellipse cx="18" cy="612.8984" fill="#84BE84" rx="3" ry="3" style="stroke:#038048;stroke-width:1.0;"/><text fill="#000000" font-family="sans-serif" font-size="14" lengthAdjust="spacing" text-decoration="underline" textLength="155" x="27" y="616.2451">load(String): Teenager</text><ellipse cx="18" cy="629.1953" fill="#84BE84" rx="3" ry="3" style="stroke:#038048;stroke-width:1.0;"/><text fill="#000000" font-family="sans-serif" font-size="14" lengthAdjust="spacing" textLength="169" x="27" y="632.542">minimalToString(): String</text></g></a><!--class java.io.Serializable--><g id="elem_java.io.Serializable"><rect codeLine="38" fill="#F1F1F1" height="37.9375" id="java.io.Serializable" rx="2.5" ry="2.5" style="stroke:#181818;stroke-width:0.5;" width="108" x="176" y="7"/><ellipse cx="191" cy="25.9688" fill="#B4A7E5" rx="11" ry="11" style="stroke:#181818;stroke-width:1.0;"/><path d="M186.9219,21.7344 L186.9219,19.5781 L194.3125,19.5781 L194.3125,21.7344 L191.8438,21.7344 L191.8438,29.8125 L194.3125,29.8125 L194.3125,31.9688 L186.9219,31.9688 L186.9219,29.8125 L189.3906,29.8125 L189.3906,21.7344 L186.9219,21.7344 Z " fill="#000000"/><text fill="#000000" font-family="sans-serif" font-size="14" font-style="italic" lengthAdjust="spacing" textLength="76" x="205" y="24.9951">Serializable</text><text fill="#000000" font-family="sans-serif" font-size="10" font-style="italic" lengthAdjust="spacing" textLength="33" x="226.5" y="37.5791">java.io</text></g><!--reverse link java.io.Serializable to ullile.sae201.Teenager--><g id="link_java.io.Serializable_ullile.sae201.Teenager"><path codeLine="40" d="M230,65.29 C230,76.66 230,90.06 230,104.8 " fill="none" id="java.io.Serializable-backto-ullile.sae201.Teenager" style="stroke:#181818;stroke-width:1.0;stroke-dasharray:7.0,7.0;"/><polygon fill="none" points="223,65.04,230,45.04,237,65.04,223,65.04" style="stroke:#181818;stroke-width:1.0;"/></g><text fill="#888888" font-family="sans-serif" font-size="10" lengthAdjust="spacing" textLength="186" x="130" y="655.126">UMLDoclet 2.1.0, PlantUML 1.2022.14</text><!--SRC=[dLLDQzj04BttLmo1W4sCi4rFmHY2Gvr04ahj9eSqXx4qjgQiTjNTbI59yz-xgmzRigNGn1V9yzwRdQyT0G0OiY0n8PDYI0jAKQDL6gIIzCN147D4G4bgds7D929pQ4t8nigPStieq1WucHX-eVFHr-cIIEA6z2zPceRJJ0WM51YayN1q0cYWOGag2Jm-Lgz1R1Fnz0Il-Hd-TrP1lONLB3S3g9utAaHnYPO6C5EPjFgv_p5LOQg9qanlw5fkKN3qW_vah2aXQNlzSzWgZlP4Z1huJBCbpKhUkVBk_Fwlw8YeAHMkHHy_8LH9YfPNWXxOnlECZErLXN3abLA2KBxBdsjCOxeVVL8tVa_tQgnJXMzmLY8p9RUaNM8xbMjbHwP7GMp8UeflJa5gGD-K9jaDbmFZqVAr0Vlvk4CsnXDs4zEWrBgJiwxGnBUOJWxYt_sTDjHNRDpToy-lKc_W5viySfQsOPwJZ5orMd9QAnKjLM7jbRLgJ_r2Se9YaLB8QmvTGvIi2OxA7AlLYidiVBSuDVjyQjrlZgQlULMAUnGPDKUwnMlYoa-7r_0uFDmwrRKCLKowY-GBNgIHXqzsKXmsFVIpZDbqNhispyQXRbkyKAzpKFTJBnH6UzvntnFEMzDHwhTYxxgH8Brsww6sUnTb5EXkP6t__iOj1gpopLk-1tLguR0DWSdV8EZOrkNw9ny7kB7pZv-tDvSg5Eu3Cmv6mN00tmLAwwnmwYwuyIFM_mS0]--></g></svg>