<?xml version="1.0" encoding="UTF-8" standalone="no"?><svg xmlns="http://www.w3.org/2000/svg" xmlns:xlink="http://www.w3.org/1999/xlink" contentStyleType="text/css" height="619px" preserveAspectRatio="none" style="width:825px;height:619px;background:#FFFFFF;" version="1.1" viewBox="0 0 825 619" width="825px" zoomAndPan="magnify"><defs/><g><!--cluster ullile.sae201.graphe--><g id="cluster_ullile.sae201.graphe"><path d="M8.5,6 L169.5,6 A3.75,3.75 0 0 1 172,8.5 L179,28.2969 L815.5,28.2969 A2.5,2.5 0 0 1 818,30.7969 L818,591.5 A2.5,2.5 0 0 1 815.5,594 L8.5,594 A2.5,2.5 0 0 1 6,591.5 L6,8.5 A2.5,2.5 0 0 1 8.5,6 " fill="none" style="stroke:#000000;stroke-width:1.5;"/><line style="stroke:#000000;stroke-width:1.5;" x1="6" x2="179" y1="28.2969" y2="28.2969"/><text fill="#000000" font-family="sans-serif" font-size="14" font-weight="bold" lengthAdjust="spacing" textLength="160" x="10" y="20.9951">ullile.sae201.graphe</text></g><!--class ullile.sae201.graphe.AffectationUtil--><a href="AffectationUtil.html" target="_top" title="AffectationUtil.html" xlink:actuate="onRequest" xlink:href="AffectationUtil.html" xlink:show="new" xlink:title="AffectationUtil.html" xlink:type="simple"><g id="elem_ullile.sae201.graphe.AffectationUtil"><rect codeLine="3" fill="#F1F1F1" height="536.9063" id="ullile.sae201.graphe.AffectationUtil" rx="2.5" ry="2.5" style="stroke:#181818;stroke-width:0.5;" width="780" x="22" y="41"/><ellipse cx="360.75" cy="57" fill="#ADD1B2" rx="11" ry="11" style="stroke:#181818;stroke-width:1.0;"/><path d="M363.7188,62.6406 Q363.1406,62.9375 362.5,63.0781 Q361.8594,63.2344 361.1563,63.2344 Q358.6563,63.2344 357.3281,61.5938 Q356.0156,59.9375 356.0156,56.8125 Q356.0156,53.6875 357.3281,52.0313 Q358.6563,50.375 361.1563,50.375 Q361.8594,50.375 362.5,50.5313 Q363.1563,50.6875 363.7188,50.9844 L363.7188,53.7031 Q363.0938,53.125 362.5,52.8594 Q361.9063,52.5781 361.2813,52.5781 Q359.9375,52.5781 359.25,53.6563 Q358.5625,54.7188 358.5625,56.8125 Q358.5625,58.9063 359.25,59.9844 Q359.9375,61.0469 361.2813,61.0469 Q361.9063,61.0469 362.5,60.7813 Q363.0938,60.5 363.7188,59.9219 L363.7188,62.6406 Z " fill="#000000"/><text fill="#000000" font-family="sans-serif" font-size="14" lengthAdjust="spacing" textLength="94" x="381.25" y="61.8467">AffectationUtil</text><line style="stroke:#181818;stroke-width:0.5;" x1="23" x2="801" y1="73" y2="73"/><ellipse cx="33" cy="86.6484" fill="none" rx="3" ry="3" style="stroke:#038048;stroke-width:1.0;"/><text fill="#000000" font-family="sans-serif" font-size="14" lengthAdjust="spacing" text-decoration="underline" textLength="155" x="42" y="89.9951">genderWeight: double</text><ellipse cx="33" cy="102.9453" fill="none" rx="3" ry="3" style="stroke:#038048;stroke-width:1.0;"/><text fill="#000000" font-family="sans-serif" font-size="14" lengthAdjust="spacing" text-decoration="underline" textLength="136" x="42" y="106.292">foodWeight: double</text><ellipse cx="33" cy="119.2422" fill="none" rx="3" ry="3" style="stroke:#038048;stroke-width:1.0;"/><text fill="#000000" font-family="sans-serif" font-size="14" lengthAdjust="spacing" text-decoration="underline" textLength="131" x="42" y="122.5889">ageWeight: double</text><ellipse cx="33" cy="135.5391" fill="none" rx="3" ry="3" style="stroke:#038048;stroke-width:1.0;"/><text fill="#000000" font-family="sans-serif" font-size="14" lengthAdjust="spacing" text-decoration="underline" textLength="258" x="42" y="138.8857">lessCompatibleHistoryWeight: double</text><ellipse cx="33" cy="151.8359" fill="none" rx="3" ry="3" style="stroke:#038048;stroke-width:1.0;"/><text fill="#000000" font-family="sans-serif" font-size="14" lengthAdjust="spacing" text-decoration="underline" textLength="270" x="42" y="155.1826">superCompatibleHistoryWeight: double</text><ellipse cx="33" cy="168.1328" fill="none" rx="3" ry="3" style="stroke:#038048;stroke-width:1.0;"/><text fill="#000000" font-family="sans-serif" font-size="14" lengthAdjust="spacing" text-decoration="underline" textLength="161" x="42" y="171.4795">hobbiesWeight: double</text><ellipse cx="33" cy="184.4297" fill="none" rx="3" ry="3" style="stroke:#038048;stroke-width:1.0;"/><text fill="#000000" font-family="sans-serif" font-size="14" lengthAdjust="spacing" text-decoration="underline" textLength="149" x="42" y="187.7764">allergyWeight: double</text><line style="stroke:#181818;stroke-width:0.5;" x1="23" x2="801" y1="195.0781" y2="195.0781"/><ellipse cx="33" cy="208.7266" fill="#84BE84" rx="3" ry="3" style="stroke:#038048;stroke-width:1.0;"/><text fill="#000000" font-family="sans-serif" font-size="14" lengthAdjust="spacing" text-decoration="underline" textLength="217" x="42" y="212.0732">setGenderWeight(double): void</text><ellipse cx="33" cy="225.0234" fill="#84BE84" rx="3" ry="3" style="stroke:#038048;stroke-width:1.0;"/><text fill="#000000" font-family="sans-serif" font-size="14" lengthAdjust="spacing" text-decoration="underline" textLength="200" x="42" y="228.3701">setFoodWeight(double): void</text><ellipse cx="33" cy="241.3203" fill="#84BE84" rx="3" ry="3" style="stroke:#038048;stroke-width:1.0;"/><text fill="#000000" font-family="sans-serif" font-size="14" lengthAdjust="spacing" text-decoration="underline" textLength="192" x="42" y="244.667">setAgeWeight(double): void</text><ellipse cx="33" cy="257.6172" fill="#84BE84" rx="3" ry="3" style="stroke:#038048;stroke-width:1.0;"/><text fill="#000000" font-family="sans-serif" font-size="14" lengthAdjust="spacing" text-decoration="underline" textLength="322" x="42" y="260.9639">setLessCompatibleHistoryWeight(double): void</text><ellipse cx="33" cy="273.9141" fill="#84BE84" rx="3" ry="3" style="stroke:#038048;stroke-width:1.0;"/><text fill="#000000" font-family="sans-serif" font-size="14" lengthAdjust="spacing" text-decoration="underline" textLength="331" x="42" y="277.2607">setSuperCompatibleHistoryWeight(double): void</text><ellipse cx="33" cy="290.2109" fill="#84BE84" rx="3" ry="3" style="stroke:#038048;stroke-width:1.0;"/><text fill="#000000" font-family="sans-serif" font-size="14" lengthAdjust="spacing" text-decoration="underline" textLength="222" x="42" y="293.5576">setHobbiesWeight(double): void</text><ellipse cx="33" cy="306.5078" fill="#84BE84" rx="3" ry="3" style="stroke:#038048;stroke-width:1.0;"/><text fill="#000000" font-family="sans-serif" font-size="14" lengthAdjust="spacing" text-decoration="underline" textLength="210" x="42" y="309.8545">setAllergyWeight(double): void</text><ellipse cx="33" cy="322.8047" fill="#84BE84" rx="3" ry="3" style="stroke:#038048;stroke-width:1.0;"/><text fill="#000000" font-family="sans-serif" font-size="14" lengthAdjust="spacing" text-decoration="underline" textLength="231" x="42" y="326.1514">getResetGenderWeight(): double</text><ellipse cx="33" cy="339.1016" fill="#84BE84" rx="3" ry="3" style="stroke:#038048;stroke-width:1.0;"/><text fill="#000000" font-family="sans-serif" font-size="14" lengthAdjust="spacing" text-decoration="underline" textLength="214" x="42" y="342.4482">getResetFoodWeight(): double</text><ellipse cx="33" cy="355.3984" fill="#84BE84" rx="3" ry="3" style="stroke:#038048;stroke-width:1.0;"/><text fill="#000000" font-family="sans-serif" font-size="14" lengthAdjust="spacing" text-decoration="underline" textLength="336" x="42" y="358.7451">getResetLessCompatibleHistoryWeight(): double</text><ellipse cx="33" cy="371.6953" fill="#84BE84" rx="3" ry="3" style="stroke:#038048;stroke-width:1.0;"/><text fill="#000000" font-family="sans-serif" font-size="14" lengthAdjust="spacing" text-decoration="underline" textLength="345" x="42" y="375.042">getResetSuperCompatibleHistoryWeight(): double</text><ellipse cx="33" cy="387.9922" fill="#84BE84" rx="3" ry="3" style="stroke:#038048;stroke-width:1.0;"/><text fill="#000000" font-family="sans-serif" font-size="14" lengthAdjust="spacing" text-decoration="underline" textLength="236" x="42" y="391.3389">getResetHobbiesWeight(): double</text><ellipse cx="33" cy="404.2891" fill="#84BE84" rx="3" ry="3" style="stroke:#038048;stroke-width:1.0;"/><text fill="#000000" font-family="sans-serif" font-size="14" lengthAdjust="spacing" text-decoration="underline" textLength="224" x="42" y="407.6357">getResetAllergyWeight(): double</text><ellipse cx="33" cy="420.5859" fill="#84BE84" rx="3" ry="3" style="stroke:#038048;stroke-width:1.0;"/><text fill="#000000" font-family="sans-serif" font-size="14" lengthAdjust="spacing" text-decoration="underline" textLength="206" x="42" y="423.9326">getResetAgeWeight(): double</text><ellipse cx="33" cy="436.8828" fill="#84BE84" rx="3" ry="3" style="stroke:#038048;stroke-width:1.0;"/><text fill="#000000" font-family="sans-serif" font-size="14" lengthAdjust="spacing" text-decoration="underline" textLength="255" x="42" y="440.2295">weight(Teenager, Teenager): double</text><ellipse cx="33" cy="453.1797" fill="#84BE84" rx="3" ry="3" style="stroke:#038048;stroke-width:1.0;"/><text fill="#000000" font-family="sans-serif" font-size="14" lengthAdjust="spacing" text-decoration="underline" textLength="273" x="42" y="456.5264">weightV1(Teenager, Teenager): double</text><ellipse cx="33" cy="469.4766" fill="#84BE84" rx="3" ry="3" style="stroke:#038048;stroke-width:1.0;"/><text fill="#000000" font-family="sans-serif" font-size="14" lengthAdjust="spacing" text-decoration="underline" textLength="273" x="42" y="472.8232">weightV2(Teenager, Teenager): double</text><ellipse cx="33" cy="485.7734" fill="#84BE84" rx="3" ry="3" style="stroke:#038048;stroke-width:1.0;"/><text fill="#000000" font-family="sans-serif" font-size="14" lengthAdjust="spacing" text-decoration="underline" textLength="323" x="42" y="489.1201">weightAdvanced(Teenager, Teenager): double</text><ellipse cx="33" cy="502.0703" fill="#84BE84" rx="3" ry="3" style="stroke:#038048;stroke-width:1.0;"/><text fill="#000000" font-family="sans-serif" font-size="14" lengthAdjust="spacing" text-decoration="underline" textLength="736" x="42" y="505.417">creerGrapheTeenager(ArrayList&lt;Teenager&gt;, ArrayList&lt;Teenager&gt;): GrapheNonOrienteValue&lt;Teenager&gt;</text><ellipse cx="33" cy="518.3672" fill="#84BE84" rx="3" ry="3" style="stroke:#038048;stroke-width:1.0;"/><text fill="#000000" font-family="sans-serif" font-size="14" lengthAdjust="spacing" text-decoration="underline" textLength="754" x="42" y="521.7139">creerGrapheTeenagerV1(ArrayList&lt;Teenager&gt;, ArrayList&lt;Teenager&gt;): GrapheNonOrienteValue&lt;Teenager&gt;</text><ellipse cx="33" cy="534.6641" fill="#84BE84" rx="3" ry="3" style="stroke:#038048;stroke-width:1.0;"/><text fill="#000000" font-family="sans-serif" font-size="14" lengthAdjust="spacing" text-decoration="underline" textLength="754" x="42" y="538.0107">creerGrapheTeenagerV2(ArrayList&lt;Teenager&gt;, ArrayList&lt;Teenager&gt;): GrapheNonOrienteValue&lt;Teenager&gt;</text><ellipse cx="33" cy="550.9609" fill="#84BE84" rx="3" ry="3" style="stroke:#038048;stroke-width:1.0;"/><text fill="#000000" font-family="sans-serif" font-size="14" lengthAdjust="spacing" text-decoration="underline" textLength="406" x="42" y="554.3076">afficherAppariement(ArrayList&lt;Arete&lt;Teenager&gt;&gt;): String</text><ellipse cx="33" cy="567.2578" fill="#84BE84" rx="3" ry="3" style="stroke:#038048;stroke-width:1.0;"/><text fill="#000000" font-family="sans-serif" font-size="14" lengthAdjust="spacing" text-decoration="underline" textLength="493" x="42" y="570.6045">tableauAfficherAppariementIHM(ArrayList&lt;Arete&lt;Teenager&gt;&gt;): String[]</text></g></a><text fill="#888888" font-family="sans-serif" font-size="10" lengthAdjust="spacing" textLength="186" x="312.5" y="609.2822">UMLDoclet 2.1.0, PlantUML 1.2022.14</text><!--SRC=[nPLHQy8m58NV_HNtPQ1CYleeOr0sfWFTnfpkGNo8wMqRY4b9KeU8_trnMbVTr8imbfUquNpdDkUM1010iHdQZ764N4eXCR0CMurca1YMfGZBIWMsWqjcBOHnZDmn9xGQEY5XF3vO2L8tavE99w4qbdQju2kuJb15QDvH9AbhGwJpgSGZqbZhY2Ha2P9q4gszqxFCltfHLrYdpO94sZn3SncQwkbKeALjH4eq2V6Jq7LAMLOtubeRvbf4nvc7NQXK8YpIfGAzup5JBGOdygPwTCl1apTRxW09Ij2zuc4pQcUQLq2bRb2HK-bIFKx6IpNPpvTAxGTCfdR_u3dYOoDxGrJ-M31rA9veuAXvETgw60sZELCSemiCk44qdQ_Jka2geJ5iqVDDlIcMRklmowBttf1FMZqRWShXYCaSlnNqeZwuVodR-lkoB8u5Jz64MSOyD_DagMXeq9KyrcK6pWYL775pp3UJvU5FqyTkd-8xdkoSLvlhUJlnzPOC-6jpFGtxlNlD9Jfe1SsWKOSNoPJpgt0rHsFzTLsjVG80]--></g></svg>